<?xml version="1.0" standalone="no"?>
<!DOCTYPE svg PUBLIC "-//W3C//DTD SVG 1.1//EN" "http://www.w3.org/Graphics/SVG/1.1/DTD/svg11.dtd" >
<svg xmlns="http://www.w3.org/2000/svg">
<metadata>Generated by IcoMoon</metadata>
<defs>
<font id="icomoon" horiz-adv-x="1024">
<font-face units-per-em="1024" ascent="960" descent="-64" />
<missing-glyph horiz-adv-x="1024" />
<glyph unicode="&#x20;" horiz-adv-x="512" d="" />
<glyph unicode="&#xe900;" glyph-name="add" d="M967.938 527.993h-375.941v375.292c0 30.887-25.009 56.711-55.895 56.711h-48.111c-30.878 0-55.995-25.825-55.995-56.711v-375.292h-375.991c-30.87 0-56.004-24.976-56.004-55.87v-48.386c0-30.87 25.125-55.737 56.004-55.737h375.999v-376.649c0-30.87 25.109-55.346 55.995-55.346h48.111c30.887 0 55.895 24.484 55.895 55.346v376.649h375.933c30.887 0 56.062 24.876 56.062 55.737v48.386c0 30.895-25.175 55.87-56.062 55.87z" />
<glyph unicode="&#xe901;" glyph-name="arrow" d="M425 743l-272-272-22-23 22-23 272-272 46 46-217 217h642v64h-642l217 217-46 46z" />
<glyph unicode="&#xe902;" glyph-name="bold" d="M707.88 475.348c37.498 44.542 60.12 102.008 60.12 164.652 0 141.16-114.842 256-256 256h-320v-896h384c141.158 0 256 114.842 256 256 0 92.956-49.798 174.496-124.12 219.348zM384 768h101.5c55.968 0 101.5-57.42 101.5-128s-45.532-128-101.5-128h-101.5v256zM543 128h-159v256h159c58.45 0 106-57.42 106-128s-47.55-128-106-128z" />
<glyph unicode="&#xe903;" glyph-name="close" d="M579.888 448l190.064 190.064c8.672 8.672 14.048 20.688 14.048 33.936 0 26.512-21.488 48-48 48-13.248 0-25.248-5.376-33.936-14.064l-190.064-190.048-190.064 190.048c-8.688 8.688-20.688 14.064-33.936 14.064-26.512 0-48-21.488-48-48 0-13.248 5.376-25.248 14.064-33.936l190.048-190.064-190.048-190.064c-8.688-8.688-14.064-20.688-14.064-33.936 0-26.512 21.488-48 48-48 13.248 0 25.248 5.376 33.936 14.064l190.064 190.048 190.064-190.064c8.688-8.672 20.688-14.048 33.936-14.048 26.512 0 48 21.488 48 48 0 13.248-5.376 25.248-14.064 33.936l-190.048 190.064z" />
<glyph unicode="&#xe904;" glyph-name="delete" d="M684.308 585.846h-344.615c-9.511 0-17.231 7.702-17.231 17.231 0 9.511 7.719 17.231 17.231 17.231h344.615c9.511 0 17.231-7.719 17.231-17.231 0-9.529-7.719-17.231-17.231-17.231v0zM667.077 241.231c0-19.023-15.439-34.462-34.462-34.462h-241.231c-19.023 0-34.462 15.439-34.462 34.462v310.154h310.154v-310.154zM460.308 672c0 9.529 7.719 17.231 17.231 17.231h68.923c9.511 0 17.231-7.702 17.231-17.231v-17.231h-103.385v17.231zM701.538 654.769h-103.385v34.462c0 19.023-15.439 34.462-34.462 34.462h-103.385c-19.023 0-34.462-15.439-34.462-34.462v-34.462h-103.385c-19.023 0-34.462-15.439-34.462-34.462v-34.462c0-19.023 15.439-34.462 34.462-34.462v-310.154c0-38.063 30.86-68.923 68.923-68.923h241.231c38.063 0 68.923 30.86 68.923 68.923v310.154c19.023 0 34.462 15.439 34.462 34.462v34.462c0 19.023-15.439 34.462-34.462 34.462v0zM512 241.231c9.511 0 17.231 7.702 17.231 17.231v206.769c0 9.511-7.719 17.231-17.231 17.231s-17.231-7.719-17.231-17.231v-206.769c0-9.529 7.719-17.231 17.231-17.231v0zM425.846 241.231c9.511 0 17.231 7.702 17.231 17.231v206.769c0 9.511-7.719 17.231-17.231 17.231s-17.231-7.719-17.231-17.231v-206.769c0-9.529 7.719-17.231 17.231-17.231v0zM598.154 241.231c9.511 0 17.231 7.702 17.231 17.231v206.769c0 9.511-7.719 17.231-17.231 17.231s-17.231-7.719-17.231-17.231v-206.769c0-9.529 7.719-17.231 17.231-17.231v0z" />
<glyph unicode="&#xe905;" glyph-name="ellipse" d="M512-21.333c-259.206 0-469.333 210.128-469.333 469.333s210.128 469.333 469.333 469.333c259.206 0 469.333-210.128 469.333-469.333s-210.128-469.333-469.333-469.333zM512 64c212.077 0 384 171.923 384 384s-171.923 384-384 384c-212.077 0-384-171.923-384-384s171.923-384 384-384z" />
<glyph unicode="&#xe906;" glyph-name="eraser" d="M598.257 145.98l-359.846 359.906 414.539 414.479c19.396 19.576 51.561 18.914 71.74-1.325l286.84-286.66c20.119-20.239 20.781-52.344 1.265-71.74l-414.539-414.66zM539.889 79.962c-95.292-95.352-327.319-18.071-427.791 82.402-100.352 100.412-31.322 185.946 64.030 281.299l363.761-363.701z" />
<glyph unicode="&#xe907;" glyph-name="image" d="M834.56 739.84h-645.12c-22.61 0-40.96-18.35-40.96-40.96v-501.76c0-22.61 18.35-40.96 40.96-40.96h645.12c22.61 0 40.96 18.35 40.96 40.96v501.76c0 22.61-18.35 40.96-40.96 40.96zM793.6 657.92v-369.377l-93.676 113.725c-3.461 4.157-9.544 4.936-13.947 1.761l-108.974-79.544-187.146 182.047c-2.15 2.109-5.181 3.011-8.11 2.867-2.99-0.287-5.714-1.884-7.434-4.342l-143.913-205.865v358.728h563.2zM547.84 504.32c0 36.7 29.86 66.56 66.56 66.56s66.56-29.86 66.56-66.56-29.86-66.56-66.56-66.56-66.56 29.86-66.56 66.56z" />
<glyph unicode="&#xe908;" glyph-name="italic" d="M320 960l0.448-62.976h127.552l-192-894.784h-127.552l-0.448-66.24h576v66.24h-126.528l192 894.784h126.528v62.976z" />
<glyph unicode="&#xe909;" glyph-name="left" d="M413.363 447.784l383.076 383.093c10.548 10.523 16.351 24.593 16.351 39.595 0 15.010-5.803 29.072-16.351 39.611l-33.567 33.551c-10.531 10.556-24.609 16.367-39.611 16.367s-29.063-5.811-39.603-16.367l-456.113-456.105c-10.581-10.573-16.376-24.701-16.334-39.72-0.042-15.085 5.744-29.196 16.334-39.778l455.688-455.663c10.54-10.556 24.601-16.367 39.611-16.367 15.002 0 29.063 5.811 39.611 16.367l33.559 33.551c21.837 21.837 21.837 57.386 0 79.214l-382.651 382.651z" />
<glyph unicode="&#xe90a;" glyph-name="line" d="M824 444h-628c-40 0-70 30-70 70s30 70 70 70h628c40 0 70-30 70-70s-30-70-70-70z" />
<glyph unicode="&#xe90b;" glyph-name="minus" d="M967.938 528.001h-911.934c-30.87 0-56.004-25.259-56.004-56.129v-47.462c0-30.87 25.125-56.412 56.004-56.412h911.934c30.887 0 56.062 25.542 56.062 56.412v47.462c0 30.87-25.175 56.129-56.062 56.129z" />
<glyph unicode="&#xe90c;" glyph-name="pencil" d="M788.018 573.732l-8.494-8.494-169.34 169.34 8.494 8.494c25.959 25.959 68.189 25.959 94.092-0.014l75.234-75.276c25.945-25.917 25.973-68.119 0.014-94.050zM555.608 679.116l168.806-168.834-151.312-151.27c-0.52-0.548-1.153-0.914-1.702-1.434-0.337-0.492-0.506-0.998-0.942-1.448-13.767-13.739-29.573-21.628-44.578-22.233l-148.542-27.042c-7.003 0-13.373 2.869-17.972 7.467-4.641 4.612-7.495 10.983-7.495 18.014l0.169 1.744 25.551 144.646c0.773 17.873 12.6 35.831 23.541 46.758 0.9 0.886 1.927 1.505 2.995 2.011 0.112 0.084 0.169 0.225 0.253 0.295l151.228 151.326zM533.389 355.567l-133.27 133.284c-1.575-4.064-2.573-7.959-2.644-11.419l-0.155-1.462-10.252-57.951 73.322-73.308 64.181 9.141c2.827 0.042 5.822 0.745 8.817 1.716zM575.717 699.254l168.806-168.806 16.228 16.2-168.834 168.834-16.2-16.228zM385.396 213.818l-92.7 39.642 21.178 8.494c10.828 4.359 16.073 16.636 11.728 27.422-4.345 10.842-16.594 16.073-27.408 11.728l-68.442-27.422c-7.903-3.192-13.162-10.828-13.205-19.336-0.112-8.522 4.978-16.27 12.797-19.631l92.7-39.642-52.326-20.953c-10.842-4.373-16.102-16.65-11.728-27.436 3.262-8.241 11.208-13.219 19.589-13.219 2.644 0 5.273 0.478 7.875 1.491l99.59 39.937c7.903 3.206 13.177 10.828 13.219 19.364 0.042 8.466-5.006 16.2-12.867 19.561z" />
<glyph unicode="&#xe90d;" glyph-name="rect" d="M976 960h-928c-26.512 0-48-21.488-48-48v-928c0-26.512 21.488-48 48-48h928c26.512 0 48 21.488 48 48v928c0 26.512-21.488 48-48 48zM928 32h-832v832h832v-832z" />
<glyph unicode="&#xe90e;" glyph-name="redo" d="M576 711.628v248.372l384-384-384-384v253.824c-446.75 10.482-427.588-303.792-313.86-509.824-280.712 303.414-221.1 789.57 313.86 775.628z" />
<glyph unicode="&#xe90f;" glyph-name="revert" d="M148 400c47.249-120.111 162.228-203.579 296.702-203.579 88.032 0 167.709 35.771 225.289 93.57l0.009 0.010c58.118 57.336 94.119 136.964 94.119 225s-36.001 167.665-94.084 224.965l-0.035 0.035c-57.336 58.118-136.964 94.119-225 94.119s-167.665-36.001-224.965-94.084l-0.035-0.035c-11-11-21-22-30-34v-4h47c25 0 46-21 46-46s-21-45-46-45h-147c-13 0-25 6-33 14-9 9-14 20-14 33v146c0 25 20 45 45 45s45-20 45-45v-32l1-1c74.33 90.481 186.228 147.747 311.5 147.747 222.155 0 402.247-180.092 402.247-402.247 0-96.882-34.251-185.765-91.305-255.2l0.558 0.7 212-212c5.654-7.091 9.072-16.182 9.072-26.072 0-23.196-18.804-42-42-42-9.89 0-18.981 3.418-26.157 9.138l0.085-0.065-212 212c-68.227-55.459-156.174-89.047-251.965-89.047-176.789 0-326.858 114.405-380.211 273.218l-0.824 2.828c-0.007 0.279-0.010 0.607-0.010 0.937 0 23.196 18.804 42 42 42 19.984 0 36.708-13.957 40.957-32.655l0.054-0.281z" />
<glyph unicode="&#xe910;" glyph-name="right" d="M796.462 487.956l-455.693 455.685c-10.54 10.548-24.609 16.359-39.611 16.359s-29.071-5.811-39.611-16.359l-33.559-33.55c-21.837-21.862-21.837-57.393 0-79.222l382.657-382.657-383.081-383.081c-10.54-10.548-16.359-24.609-16.359-39.603 0-15.010 5.819-29.071 16.359-39.628l33.559-33.542c10.548-10.548 24.609-16.359 39.611-16.359s29.071 5.811 39.611 16.359l456.118 456.101c10.565 10.581 16.367 24.709 16.334 39.728 0.033 15.077-5.769 29.196-16.334 39.769z" />
<glyph unicode="&#xe911;" glyph-name="select" d="M1024 155.143c0-7.778-3.089-15.235-8.587-20.741l-187.547-187.543c-5.729-5.725-13.237-8.587-20.741-8.587-7.508 0-15.012 2.862-20.741 8.587l-222.114 222.118-200.4-200.408c-7.187-7.183-17.569-10.136-27.467-7.805-9.885 2.331-17.867 9.612-21.089 19.251l-313.802 939.090c-3.523 10.542-0.782 22.172 7.078 30.036 7.864 7.856 19.478 10.609 30.036 7.078l939.090-313.805c9.639-3.218 16.92-11.199 19.251-21.089 2.335-9.889-0.622-20.283-7.805-27.467l-195.868-195.864 222.118-222.114c5.498-5.502 8.587-12.959 8.587-20.737z" />
<glyph unicode="&#xe912;" glyph-name="text" d="M469.333 576h-85.333v-42.667h-85.333v128h426.667v-128h-85.333v42.667h-85.333v-256h42.667v-85.333h-170.667v85.333h42.667v256zM170.667 874.667h682.667c47.128 0 85.333-38.205 85.333-85.333v-682.667c0-47.128-38.205-85.333-85.333-85.333h-682.667c-47.128 0-85.333 38.205-85.333 85.333v682.667c0 47.128 38.205 85.333 85.333 85.333zM170.667 789.333v-682.667h682.667v682.667h-682.667z" />
<glyph unicode="&#xe913;" glyph-name="undo" d="M761.862-64c113.726 206.032 132.888 520.306-313.862 509.824v-253.824l-384 384 384 384v-248.372c534.962 13.942 594.57-472.214 313.862-775.628z" />
<glyph unicode="&#xe914;" glyph-name="upload" d="M726.976 396.48c-12.576-12.48-32.96-12.48-45.536 0l-137.44 136.64v-308.8c0-17.6-14.304-32-32-32s-32 14.4-32 32v307.84l-136.448-135.68c-12.544-12.48-32.928-12.48-45.536 0-12.544 12.48-12.544 32.64 0 45.44l190.112 189.12c6.72 6.72 15.584 9.6 24.384 8.96 8.768 0.64 17.664-2.24 24.352-8.96l190.112-189.12c12.544-12.8 12.544-32.96 0-45.44v0zM738.144 671.040c-46.976 95.36-144.768 160.96-258.144 160.96-151.968 0-276.16-117.76-286.944-266.88-111.712-32-193.056-129.6-193.056-245.12 0-136.32 113.28-247.36 256-255.36l544-0.64c109.984 47.68 224 180.8 224 304 0 161.6-126.432 293.76-285.856 303.040v0z" />
</font>
</defs>
</svg>
